<svg width="40" height="40" viewBox="0 0 40 40" fill="none" xmlns="http://www.w3.org/2000/svg">
<g id="coinbase-v2 1" clip-path="url(#clip0_81_65)">
<path id="Vector" d="M20 40C31.0457 40 40 31.0457 40 20C40 8.9543 31.0457 0 20 0C8.9543 0 0 8.9543 0 20C0 31.0457 8.9543 40 20 40Z" fill="#0052FF"/>
<path id="Vector_2" d="M20.168 14.134C22.5227 14.134 24.3906 15.5863 25.1 17.7461H29.8438C28.9844 13.1285 25.1746 10 20.2059 10C14.5633 10 10.1562 14.2832 10.1562 20.0191C10.1562 25.7551 14.4531 30 20.2059 30C25.0633 30 28.9488 26.8715 29.809 22.2156H25.0996C24.427 24.3758 22.5605 25.866 20.2043 25.866C16.9531 25.866 14.6746 23.3703 14.6746 20.0191C14.6762 16.6297 16.918 14.134 20.168 14.134Z" fill="white"/>
</g>
<defs>
<clipPath id="clip0_81_65">
<rect width="40" height="40" fill="white"/>
</clipPath>
</defs>
</svg>
