<svg width="20" height="20" viewBox="0 0 20 20" fill="none" xmlns="http://www.w3.org/2000/svg">
<path fill-rule="evenodd" clip-rule="evenodd" d="M8.33333 1.66667H15C15.663 1.66667 16.2989 1.93006 16.7678 2.3989C17.2366 2.86775 17.5 3.50363 17.5 4.16667V15.8333C17.5 16.4964 17.2366 17.1323 16.7678 17.6011C16.2989 18.0699 15.663 18.3333 15 18.3333H8.33333C8.11232 18.3333 7.90036 18.2455 7.74408 18.0893C7.5878 17.933 7.5 17.721 7.5 17.5C7.5 17.279 7.5878 17.067 7.74408 16.9107C7.90036 16.7545 8.11232 16.6667 8.33333 16.6667H15C15.221 16.6667 15.433 16.5789 15.5893 16.4226C15.7455 16.2663 15.8333 16.0544 15.8333 15.8333V4.16667C15.8333 3.94566 15.7455 3.7337 15.5893 3.57742C15.433 3.42114 15.221 3.33334 15 3.33334H8.33333C8.11232 3.33334 7.90036 3.24554 7.74408 3.08926C7.5878 2.93298 7.5 2.72102 7.5 2.50001C7.5 2.27899 7.5878 2.06703 7.74408 1.91075C7.90036 1.75447 8.11232 1.66667 8.33333 1.66667ZM8.5775 6.07751C8.73377 5.92128 8.9457 5.83352 9.16667 5.83352C9.38764 5.83352 9.59956 5.92128 9.75583 6.07751L13.0892 9.41084C13.2454 9.56711 13.3332 9.77904 13.3332 10C13.3332 10.221 13.2454 10.4329 13.0892 10.5892L9.75583 13.9225C9.59866 14.0743 9.38816 14.1583 9.16967 14.1564C8.95117 14.1545 8.74216 14.0669 8.58765 13.9124C8.43314 13.7578 8.3455 13.5488 8.34361 13.3303C8.34171 13.1118 8.4257 12.9013 8.5775 12.7442L10.4883 10.8333H3.33333C3.11232 10.8333 2.90036 10.7455 2.74408 10.5893C2.5878 10.433 2.5 10.221 2.5 10C2.5 9.77899 2.5878 9.56703 2.74408 9.41075C2.90036 9.25447 3.11232 9.16667 3.33333 9.16667H10.4883L8.5775 7.25584C8.42127 7.09957 8.33351 6.88764 8.33351 6.66667C8.33351 6.4457 8.42127 6.23378 8.5775 6.07751Z" fill="#525252"/>
</svg>
