<svg width="16" height="16" viewBox="0 0 16 16" fill="none" xmlns="http://www.w3.org/2000/svg">
<g clip-path="url(#clip0_903_577)">
<path d="M0.781382 15.9998C0.626847 15.9998 0.475775 15.954 0.347274 15.8682C0.218774 15.7824 0.118618 15.6603 0.0594765 15.5176C0.000334691 15.3748 -0.0151367 15.2177 0.0150195 15.0661C0.0451758 14.9146 0.119605 14.7753 0.228892 14.6661L14.6661 0.228849C14.8127 0.0823194 15.0114 0 15.2186 0C15.4258 0 15.6246 0.0823194 15.7711 0.228849C15.9176 0.375378 16 0.574115 16 0.781339C16 0.988562 15.9176 1.1873 15.7711 1.33383L1.33387 15.7711C1.26138 15.8437 1.17526 15.9013 1.08045 15.9406C0.985635 15.9798 0.884 15.9999 0.781382 15.9998Z" fill="black"/>
<path d="M15.2186 15.9998C15.116 15.9999 15.0143 15.9798 14.9195 15.9406C14.8247 15.9013 14.7386 15.8437 14.6661 15.7711L0.228849 1.33383C0.0823194 1.1873 0 0.988563 0 0.781339C0 0.574115 0.0823194 0.375378 0.228849 0.228849C0.375378 0.0823194 0.574115 0 0.781339 0C0.988563 0 1.1873 0.0823194 1.33383 0.228849L15.7711 14.6661C15.8804 14.7753 15.9548 14.9146 15.9849 15.0661C16.0151 15.2177 15.9996 15.3748 15.9405 15.5176C15.8813 15.6603 15.7812 15.7824 15.6527 15.8682C15.5242 15.954 15.3731 15.9998 15.2186 15.9998Z" fill="black"/>
</g>
<defs>
<clipPath id="clip0_903_577">
<rect width="16" height="16" fill="white"/>
</clipPath>
</defs>
</svg>
