<svg width="40" height="40" viewBox="0 0 40 40" fill="none" xmlns="http://www.w3.org/2000/svg">
<g id="Icon (1) 1" clip-path="url(#clip0_81_117)">
<g id="Clip path group">
<mask id="mask0_81_117" style="mask-type:luminance" maskUnits="userSpaceOnUse" x="0" y="0" width="40" height="40">
<g id="a">
<path id="Vector" d="M0 0H40V40H0V0Z" fill="white"/>
</g>
</mask>
<g mask="url(#mask0_81_117)">
<g id="Group">
<path id="Vector_2" d="M20 39.95C31.0181 39.95 39.95 31.0181 39.95 20C39.95 8.98192 31.0181 0.0500031 20 0.0500031C8.98197 0.0500031 0.0500488 8.98192 0.0500488 20C0.0500488 31.0181 8.98197 39.95 20 39.95Z" fill="#141414" stroke="#3B4040"/>
<path id="Vector_3" d="M12.252 14.8965C16.5311 10.7236 23.4691 10.7236 27.7482 14.8965L28.2632 15.3987C28.4772 15.6073 28.4772 15.9456 28.2632 16.1542L26.5015 17.8722C26.3945 17.9765 26.2211 17.9765 26.1141 17.8722L25.4054 17.1811C22.4201 14.27 17.5801 14.27 14.5948 17.1811L13.8358 17.9212C13.7288 18.0255 13.5554 18.0255 13.4484 17.9212L11.6867 16.2032C11.4727 15.9946 11.4727 15.6563 11.6867 15.4477L12.252 14.8965ZM31.3917 18.4494L32.9596 19.9784C33.1736 20.187 33.1736 20.5253 32.9596 20.7339L25.8896 27.6283C25.6757 27.837 25.3288 27.837 25.1148 27.6283L20.097 22.7352C20.0435 22.683 19.9568 22.683 19.9033 22.7352L14.8855 27.6283C14.6716 27.837 14.3247 27.837 14.1107 27.6283L7.0406 20.7338C6.82664 20.5252 6.82664 20.1869 7.0406 19.9783L8.60855 18.4493C8.82251 18.2406 9.1694 18.2406 9.38336 18.4493L14.4012 23.3425C14.4547 23.3947 14.5414 23.3947 14.5949 23.3425L19.6126 18.4493C19.8265 18.2406 20.1734 18.2406 20.3874 18.4493L25.4053 23.3425C25.4588 23.3947 25.5455 23.3947 25.599 23.3425L30.6169 18.4494C30.8308 18.2407 31.1777 18.2407 31.3917 18.4494Z" fill="white"/>
</g>
</g>
</g>
</g>
<defs>
<clipPath id="clip0_81_117">
<rect width="40" height="40" fill="white"/>
</clipPath>
</defs>
</svg>
