<svg width="12" height="8" viewBox="0 0 12 8" fill="none" xmlns="http://www.w3.org/2000/svg">
<path d="M6.85247 6.85212C6.91317 6.79164 6.96397 6.72513 7.00852 6.65582L11.6597 2.00464C12.1132 1.55069 12.1136 0.814775 11.6597 0.360612C11.2058 -0.0929042 10.4701 -0.0933347 10.0157 0.360612L6.01044 4.36628L1.98389 0.34038C1.52995 -0.113352 0.794247 -0.113567 0.340085 0.34038C0.113434 0.567676 -0.000429269 0.864926 1.21607e-06 1.16218C-0.000429269 1.45964 0.113434 1.75711 0.340515 1.98354L5.01193 6.6556C5.05648 6.72513 5.10771 6.79142 5.16884 6.85212C5.40087 7.08415 5.70609 7.19586 6.01044 7.19048C6.31436 7.19608 6.62044 7.08415 6.85247 6.85212Z" fill="white"/>
</svg>
